<svg t="1628710767672" class="icon" viewBox="0 0 1024 1024" version="1.1" xmlns="http://www.w3.org/2000/svg" p-id="2356" width="200" height="200"><path d="M512 0c282.775704 0 512 229.224296 512 512S794.775704 1024 512 1024 0 794.775704 0 512 229.224296 0 512 0z m0 37.925926C250.17837 37.925926 37.925926 250.17837 37.925926 512s212.252444 474.074074 474.074074 474.074074 474.074074-212.252444 474.074074-474.074074S773.82163 37.925926 512 37.925926z m-152.120889 160.805926c15.777185-12.894815 16.630519-7.149037 21.940148-3.565037s88.519111 85.655704 88.519111 85.655704H439.182222c37.888 0.018963 77.861926 0.132741 116.110222 0.284444 12.420741-12.231111 81.787259-80.535704 86.622815-83.797333 5.30963-3.584 6.181926-9.329778 21.959111 3.602963 15.777185 12.894815 6.447407 24.367407 6.447408 24.367407l-57.856 56.092444c71.793778 0.360296 128.663704 0.796444 139.320889 0.872297h1.327407l0.455111 0.018963s78.544593 17.21837 80.706371 107.595852c-0.32237 27.117037-0.455111 62.388148-0.474075 98.417777v42.040889c0.094815 61.288296 0.379259 116.54637 0.455112 128.379259v2.446223c-0.18963 3.602963-5.878519 88.405333-79.606519 102.096592-32.274963-1.080889-43.045926 0-43.045926 0s-2.142815 37.129481-33.886815 37.660445c-31.744 0.530963-36.598519-25.827556-37.660444-35.51763h-4.759704c-35.593481 0.113778-217.069037 0.948148-243.749926 1.061926l-2.446222 0.018963h-0.83437s-3.77363 34.455704-35.51763 34.436741c-31.725037 0-33.355852-28.520296-35.498667-34.436741-20.442074 0-48.412444-0.530963-48.412444-0.530963s-70.162963-14.52563-79.208296-105.434074c0.32237-24.272593 0.474074-54.821926 0.530963-86.603852l0.018963-11.946667V525.937778v-17.692445c-0.094815-56.282074-0.360296-105.073778-0.417186-116.091259v-2.313481S189.62963 388.740741 189.62963 386.616889v-2.389333c0.32237-19.209481 6.826667-81.995852 77.577481-101.963852 26.112-1.005037 83.019852-1.384296 149.048889-1.422223h-3.299556l-59.543703-57.704296s-9.310815-11.472593 6.447407-24.38637z m384.379259 149.522963h-458.145185c-13.937778 0-25.220741 11.567407-25.220741 25.827555V677.546667c0 14.260148 11.282963 25.808593 25.220741 25.808592h458.145185c13.918815 0 25.220741-11.567407 25.220741-25.808592V374.08237c0-14.260148-11.301926-25.827556-25.220741-25.827555zM516.247704 567.940741c31.744 68.854519 66.730667 18.24237 66.730666 18.24237l19.911111 12.951704s-37.129481 59.733333-86.091851 14.525629c-41.434074 45.188741-85.010963-14.411852-85.010963-14.411851l22.053926-14.089482 0.151703 0.227556 0.37926 0.663703c4.133926 6.693926 31.649185 46.838519 61.876148-18.109629z m-72.628148-133.973334l10.24 50.574223-133.442371 25.827555-11.282963-50.574222 134.485334-25.827556z m149.579851 0l134.485334 25.827556-11.282963 50.574222-133.423408-25.827555 10.221037-50.574223z" p-id="2357"></path></svg>