<?xml version="1.0" standalone="no"?><!DOCTYPE svg PUBLIC "-//W3C//DTD SVG 1.1//EN" "http://www.w3.org/Graphics/SVG/1.1/DTD/svg11.dtd"><svg t="1614850279380" class="icon" viewBox="0 0 1024 1024" version="1.1" xmlns="http://www.w3.org/2000/svg" p-id="4383" xmlns:xlink="http://www.w3.org/1999/xlink" width="200" height="200"><defs><style type="text/css"></style></defs><path d="M873.6 150.4C777.6 52.8 649.6 0 512 0S246.4 52.8 150.4 150.4 0 374.4 0 512s52.8 265.6 150.4 361.6S374.4 1024 512 1024s265.6-52.8 361.6-150.4S1024 649.6 1024 512s-52.8-265.6-150.4-361.6zM512 974.4C256 974.4 49.6 768 49.6 512S256 49.6 512 49.6s462.4 208 462.4 462.4S768 974.4 512 974.4z" p-id="4384"></path><path d="M753.6 275.2c-17.6-11.2-44.8-1.6-51.2 1.6L212.8 467.2c-17.6 6.4-36.8 20.8-33.6 43.2 3.2 25.6 30.4 35.2 33.6 36.8l113.6 38.4c8 28.8 35.2 116.8 41.6 136 4.8 16 11.2 35.2 28.8 35.2 1.6 1.6 4.8 1.6 9.6 1.6 11.2 0 17.6-3.2 20.8-8l65.6-60.8 110.4 84.8c1.6 1.6 1.6 1.6 4.8 1.6 9.6 4.8 17.6 4.8 24 4.8s14.4-1.6 17.6-3.2c19.2-8 27.2-25.6 28.8-28.8 0-1.6 1.6-1.6 1.6-3.2L768 307.2V304c0-17.6-9.6-25.6-14.4-28.8zM424 702.4l6.4-60.8 32 24-38.4 36.8z m219.2 35.2c-1.6 1.6-3.2 4.8-6.4 6.4-3.2 1.6-6.4 1.6-11.2-1.6l-121.6-94.4-60.8-48c51.2-44.8 209.6-187.2 216-195.2 6.4-6.4 14.4-14.4 12.8-25.6 0-1.6 0-1.6-1.6-3.2-1.6-6.4-4.8-12.8-11.2-16-11.2-6.4-24-1.6-35.2 4.8L336 548.8l-113.6-38.4c-1.6-1.6-4.8-1.6-6.4-4.8 1.6-1.6 4.8-3.2 6.4-3.2h1.6l488-192h1.6c3.2-1.6 8-3.2 12.8-3.2l-83.2 430.4z" p-id="4385"></path></svg>