<svg t="1628712349323" class="icon" viewBox="0 0 1024 1024" version="1.1" xmlns="http://www.w3.org/2000/svg" p-id="52427" width="200" height="200"><path d="M1024 511.855408a511.855408 511.855408 0 1 0-511.855408 511.855408 512.144592 512.144592 0 0 0 511.855408-511.855408z m-977.441401 0A465.296809 465.296809 0 1 1 511.855408 977.441401 465.296809 465.296809 0 0 1 46.558599 511.855408z m0 0" p-id="52428"></path><path d="M578.367693 250.144027v142.278453a92.249647 92.249647 0 0 0 2.891838 27.183281 19.953685 19.953685 0 0 0 21.399605 13.302457 52.053092 52.053092 0 0 0 37.304716-22.267156v19.953685h33.83451V250.144027h-32.966958v137.651511c-7.229596 10.410618-14.170008 15.615928-20.532054 15.615928s-6.940412-2.602655-7.51878-7.807964a92.828015 92.828015 0 0 1 0-12.724089V250.144027z m0 0M504.336628 433.77577a44.534312 44.534312 0 0 0 38.172268-18.507767 71.139226 71.139226 0 0 0 10.121434-42.510025v-64.198814a70.560859 70.560859 0 0 0-10.121434-42.220841 48.582886 48.582886 0 0 0-76.344536 0 70.560859 70.560859 0 0 0-10.121434 42.220841v63.331262a72.295962 72.295962 0 0 0 10.121434 42.510026 44.823496 44.823496 0 0 0 37.883084 18.507766z m-15.615928-130.711099q0-24.869811 15.615928-24.869811c10.410618 0 15.615928 8.386332 15.615928 24.869811v75.766168c0 16.772663-5.205309 25.158995-15.615928 25.158994s-15.615928-8.386332-15.615928-25.158994z m0 0M412.376165 430.305563V332.561423l43.666761-144.591923h-37.015533l-24.291443 95.430669-25.737362-95.141485h-38.461452q10.121435 30.364304 23.423892 67.66902A610.4671 610.4671 0 0 1 375.939 332.561423v97.74414h36.147981z m0 0M749.56453 486.985597a65.933917 65.933917 0 0 0-37.015533-17.061847Q646.036713 462.694154 511.855408 462.694154t-200.115222 7.229596a65.355549 65.355549 0 0 0-37.304716 17.061847 68.825755 68.825755 0 0 0-21.110421 35.858797 626.950579 626.950579 0 0 0-9.253883 126.373341 613.937306 613.937306 0 0 0 9.253883 126.373341 66.223101 66.223101 0 0 0 20.821237 35.858797 64.198814 64.198814 0 0 0 37.015533 16.483479 1930.012991 1930.012991 0 0 0 200.404405 7.51878 1929.723807 1929.723807 0 0 0 200.404406-7.51878 63.331262 63.331262 0 0 0 36.726348-16.483479 68.825755 68.825755 0 0 0 20.821237-35.858797 623.769557 623.769557 0 0 0 11.27817-126.373341 611.334651 611.334651 0 0 0-9.543067-126.373341 65.933917 65.933917 0 0 0-20.821237-35.858797z m-352.225925 72.295962H358.58797v205.609715h-36.147981v-205.609715H284.556905v-33.83451h112.7817z m97.454956 205.609715H462.694154v-19.375318a52.920644 52.920644 0 0 1-36.726348 21.977972 19.375318 19.375318 0 0 1-20.821237-13.302457 88.490257 88.490257 0 0 1-2.891839-26.31573v-141.410901H433.77577v131.578651a98.033324 98.033324 0 0 0 0 12.724089c0 5.205309 3.181022 7.51878 7.51878 7.51878s13.302457-5.205309 20.532053-15.03756v-136.78396h32.099407z m122.903135-53.499012a131.57865 131.57865 0 0 1-3.181022 36.147981 24.869811 24.869811 0 0 1-25.737363 19.953685 44.823496 44.823496 0 0 1-33.545326-19.953685v17.351031h-32.388591v-239.444225h32.099407v78.368822a43.666761 43.666761 0 0 1 33.545326-19.375317 25.158995 25.158995 0 0 1 25.737363 20.242869 127.530076 127.530076 0 0 1 3.181022 35.858797z m122.035583-28.918385h-64.777182v31.52104q0 24.869811 16.48348 24.86981a13.880825 13.880825 0 0 0 14.459192-13.013273 176.402146 176.402146 0 0 0 0-21.977972h32.966958v4.626942a157.316012 157.316012 0 0 1 0 21.11042 44.823496 44.823496 0 0 1-46.558599 38.750636 46.269415 46.269415 0 0 1-39.039819-18.507766 67.66902 67.66902 0 0 1-10.410619-41.931658v-63.331262a69.693307 69.693307 0 0 1 10.121435-41.931658 49.450438 49.450438 0 0 1 76.922903 0 71.717594 71.717594 0 0 1 9.832251 41.931658z m0 0" p-id="52429"></path><path d="M691.149393 613.648122c-10.988986 0-16.194295 8.097148-16.194296 24.580627v16.772663h32.388591v-16.772663q0-24.580627-16.194295-24.580627z m0 0M571.138097 613.648122a23.134708 23.134708 0 0 0-16.194296 7.807964v108.733126a23.134708 23.134708 0 0 0 16.194296 7.807964q14.170008 0 14.170008-24.291443v-76.055352q0-24.291443-14.170008-24.291443z m0 0" p-id="52430"></path></svg>