<?xml version="1.0" standalone="no"?><!DOCTYPE svg PUBLIC "-//W3C//DTD SVG 1.1//EN" "http://www.w3.org/Graphics/SVG/1.1/DTD/svg11.dtd"><svg t="1659096121139" class="icon" viewBox="0 0 1024 1024" version="1.1" xmlns="http://www.w3.org/2000/svg" p-id="1989" xmlns:xlink="http://www.w3.org/1999/xlink" width="200" height="200"><defs><style type="text/css"></style></defs><path d="M229.985084 0.213324l202.658223 574.269406v-0.298654l16.041998 45.224782c89.084288 252.064164 136.954294 387.183867 137.210283 387.482522 0.17066 0 13.652764 0.853298 29.950752 1.706595 49.320612 2.133244 110.502062 7.67968 156.836132 13.226116 10.666222 1.279947 19.881838 1.706596 20.479146 1.279946l-200.951627-570.002916-18.601891-52.477814-103.377026-292.254489c-19.625849-55.464356-36.265156-102.737053-37.118454-104.528978L431.790009 0.042665H230.198408z" fill="#d81e06" p-id="1990"></path><path d="M592.977959 0.554644l-0.426649 226.3799-0.341319 226.379901-18.644556-52.563143V400.665972l-24.105662 503.872339c23.679013 66.855881 36.350485 102.523728 36.47848 102.694388 0.17066 0.17066 13.652764 1.023957 29.950752 1.791925 49.363277 2.133244 110.502062 7.67968 157.006791 13.226116 10.666222 1.279947 19.924503 1.706596 20.479147 1.279946s0.853298-231.243698 0.725303-512.405316L793.758927 0.469314h-200.780968zM229.985084 0.127995v511.552018c0 281.332278 0.298654 511.765343 0.639973 512.106663s17.748594-1.279947 38.697055-3.669181c20.905796-2.559893 49.91792-5.546436 64.423982-6.826382 22.100412-2.133244 88.23099-6.399733 95.91067-6.399733 2.218574 0 2.389234-11.51952 2.687888-216.737636l0.341319-216.737636 16.212658 45.224782 5.546436 16.041998 24.318986-503.44569-8.106328-23.295029-37.545103-104.102329-1.279946-3.711845H229.985084z" fill="#d81e06" p-id="1991"></path></svg>